<?xml version="1.0" encoding="utf-8"?>
<!-- Generator: Adobe Illustrator 16.0.0, SVG Export Plug-In . SVG Version: 6.00 Build 0)  -->
<!DOCTYPE svg PUBLIC "-//W3C//DTD SVG 1.1//EN" "http://www.w3.org/Graphics/SVG/1.1/DTD/svg11.dtd">
<svg version="1.1" id="Calque_1" xmlns="http://www.w3.org/2000/svg" xmlns:xlink="http://www.w3.org/1999/xlink" x="0px" y="0px"
	 width="100%" height="100%" viewBox="0 0 1400 980" enable-background="new 0 0 1400 980" xml:space="preserve">
<g>
	<path fill-rule="evenodd" clip-rule="evenodd" fill="#617F89" d="M1,0h122.563C86.503,103.678,93.607,287.128,83.598,286.394
		c-5.319-0.385-6.999-61.144-17.778-56.176c-21.382,9.867-15.507,255.323-30.765,253.329C26.131,482.428,27,380.675,1,356.5V0z
		 M156.284,0H908.2c3.569,17.28,6.334,33.859,2.064,46.454c-10.884,32.188-37.76,44.587-49.624,76.39
		c-19.387,51.885-21.277,181.081-29.256,180.031c-15.188-1.995-21.207-192.118-33.701-191.034
		c-16.202,1.399-30.971,332.705-39.649,331.76c-7.699-0.805-1.61-109.082-12.599-109.571c-17.568-0.805-11.584,91.564-21.837,91.809
		c-7.734,0.21-2.975-160.063-13.334-158.453c-21.697,3.324-23.272,268.419-45.914,271.043
		c-23.517,2.694-19.632-233.921-44.444-228.113c-31.076,7.277-22.152,263.451-47.419,260.687
		c-15.818-1.714-15.258-114.406-29.642-127.387c-25.022-22.566-9.904,67.035-8.889,100.728c0.945,30.998,1.505,63.815,14.838,91.84
		c16.273,34.252,35.94,103.106,71.111,88.867c42.869-17.389,24.007-130.711,38.495-133.3c22.677-4.059,6.439,133.439,44.444,183.646
		c16.798,22.182,20.928-72.038,38.53-74.067c12.668-1.435,5.459,62.486,23.692,85.928c19.037,24.456,57.813,25.75,80,47.372
		c19.632,19.173,16.763,59.198,41.504,71.094c62.992,30.368,139.878,20.38,204.445,47.354c20.927,8.747,50.288,17.049,78.145,26.923
		H1V864.578c44-7.837,96.417-2.975,139.252-15.115c27.682-7.871,56.66-15.464,79.827-32.607
		c25.617-18.928,47.263-44.363,62.136-72.563c10.254-19.452,12.38-43.278,10.315-65.181c-1.785-18.822-20.354-33.657-21.509-52.55
		c-3.64-60.178,9.368-120.46,7.408-180.707c-1.505-45.308,14.798-103.281-17.783-134.769
		c-22.922-22.182-17.081,91.805-26.669,91.805c-9.274,0.035-8.155-56.644-14.839-84.423
		c-15.048-62.626-35.346-124.195-50.359-186.856C161.674,101.943,160.554,40.73,156.284,0L156.284,0z"/>
	<path fill-rule="evenodd" clip-rule="evenodd" fill="#93CCDC" d="M245.138,0h-75.73c7.769,222.166,17.988,553.352,25.512,696.832
		C206.328,915.115,228.165,218.463,245.138,0L245.138,0z M183.371,735.337c1.54,0,2.8,3.849,2.8,8.571c0,4.724-1.26,8.572-2.8,8.572
		c-1.575,0-2.799-3.849-2.799-8.572C180.571,739.186,181.796,735.337,183.371,735.337L183.371,735.337z M227.5,858.63
		c0.7,0,1.26,1.715,1.26,3.813c0,2.1-0.56,3.779-1.26,3.779c-0.665,0-1.225-1.68-1.225-3.779
		C226.275,860.345,226.835,858.63,227.5,858.63L227.5,858.63z M201.604,777.915c0.665,0,1.225,1.715,1.225,3.814
		c0,2.099-0.56,3.778-1.225,3.778c-0.7,0-1.26-1.68-1.26-3.778C200.344,779.63,200.904,777.915,201.604,777.915L201.604,777.915z
		 M192.4,800.727c0.665,0,1.225,1.68,1.225,3.779c0,2.099-0.56,3.813-1.225,3.813c-0.7,0-1.26-1.715-1.26-3.813
		C191.14,802.406,191.7,800.727,192.4,800.727L192.4,800.727z M225.82,838.758c0.21,0,0.35,3.604,0.35,8.012
		c0,4.443-0.14,8.012-0.35,8.012s-0.385-3.568-0.385-8.012C225.436,842.361,225.61,838.758,225.82,838.758L225.82,838.758z
		 M183.581,607.705c0.21,0,0.35,3.604,0.35,8.012c0,4.443-0.14,8.012-0.35,8.012s-0.35-3.568-0.35-8.012
		C183.231,611.309,183.371,607.705,183.581,607.705L183.581,607.705z M211.927,823.014c0.21,0,0.35,3.604,0.35,8.012
		c0,4.443-0.14,8.047-0.35,8.047s-0.385-3.604-0.385-8.047C211.542,826.617,211.717,823.014,211.927,823.014L211.927,823.014z
		 M178.787,870.421c0.175,0,0.35,3.604,0.35,8.012c0,4.443-0.175,8.012-0.35,8.012c-0.21,0-0.385-3.568-0.385-8.012
		C178.401,874.024,178.576,870.421,178.787,870.421L178.787,870.421z M189.53,844.74c0.175,0,0.35,3.568,0.35,8.012
		s-0.175,8.012-0.35,8.012c-0.21,0-0.385-3.568-0.385-8.012S189.32,844.74,189.53,844.74L189.53,844.74z M195.899,735.477
		c0.42,0,0.805,8.012,0.805,17.843c0,9.866-0.385,17.844-0.805,17.844c-0.455,0-0.805-7.978-0.805-17.844
		C195.094,743.488,195.444,735.477,195.899,735.477L195.899,735.477z M182.146,685.445c0.455,0,0.805,7.977,0.805,17.844
		c0,9.831-0.35,17.843-0.805,17.843s-0.805-8.012-0.805-17.843C181.341,693.422,181.691,685.445,182.146,685.445L182.146,685.445z
		 M199.294,809.788c0.665,0,1.19,11.826,1.19,26.415c0,14.59-0.525,26.415-1.19,26.415c-0.665,0-1.19-11.825-1.19-26.415
		C198.104,821.614,198.629,809.788,199.294,809.788L199.294,809.788z M222.601,533.742c1.155,0,2.1,20.537,2.1,45.903
		c0,25.365-0.945,45.938-2.1,45.938c-1.155,0-2.1-20.572-2.1-45.938C220.501,554.279,221.446,533.742,222.601,533.742
		L222.601,533.742z M217.492,705.563c1.155,0,2.064,20.537,2.064,45.903c0,25.365-0.91,45.938-2.064,45.938s-2.1-20.572-2.1-45.938
		C215.392,726.1,216.337,705.563,217.492,705.563L217.492,705.563z"/>
</g>
</svg>
