<?xml version="1.0" encoding="utf-8"?>
<!-- Generator: Adobe Illustrator 16.0.0, SVG Export Plug-In . SVG Version: 6.00 Build 0)  -->
<!DOCTYPE svg PUBLIC "-//W3C//DTD SVG 1.1//EN" "http://www.w3.org/Graphics/SVG/1.1/DTD/svg11.dtd">
<svg version="1.1" id="Calque_1" xmlns="http://www.w3.org/2000/svg" xmlns:xlink="http://www.w3.org/1999/xlink" x="0px" y="0px"
	 width="100%" height="100%" viewBox="0 0 1400 980" enable-background="new 0 0 1400 980" xml:space="preserve">
<g>
	<path fill-rule="evenodd" clip-rule="evenodd" fill="#A5CDC4" d="M248.172,0H1400v521.942c-2.469,4.759-4.086,9.481-6.256,14.205
		c-6.648,14.59-4.072-169.581-11.771-170.316c-8.153-0.805-2.176,22.007-10.365,22.217c-6.264,0.14-4.814-76.656-13.318-77.006
		c-9.52-0.419-9.688,44.608-14.797,44.434c-6.579-0.245,3.958-86.417-24.423-107.025c-91.304-66.23-170.952-149.568-280.384-122.209
		c-11.443,2.869-12.632,161.814-22.605,161.08c-25.022-1.784-33.456-148.204-45.914-148.099
		c-13.333,0.105-28.661,185.255-34.086,185.15c-8.714-0.21-6.438-95.724-16.272-96.284c-25.722-1.504-24.392,144.775-35.556,143.656
		c-13.823-1.399-2.205-148.344-22.222-149.568c-6.824-0.455,3.464,90.791-7.419,89.951c-7.069-0.525-3.465-86.873-10.359-87.012
		c-12.493-0.245-12.318,199.705-20.752,199.949c-6.824,0.21-6.404-117.241-16.309-116.996c-9.483,0.21-13.088,73.333-20.717,72.563
		c-6.614-0.665-5.319-144.11-20.753-143.656c-30.48,0.91-36.745,213.07-56.308,213.28c-27.122,0.28-14.908-150.758-121.47-228.079
		c-39.405-28.619-93.753-30.059-134.803-56.229C379.37,118.96,325.092,38.262,248.172,0L248.172,0z M1106.334,980H0V383.745
		c30.864,14.065,67.078,48.212,97.384,56.154c27.856,7.277,57.738,3.499,86.015,8.887c11.094,2.099,20.068,11.371,31.162,13.33
		c64.777,11.406,129.894,22.986,195.581,26.66c67.577,3.743,135.516,0.805,202.987-4.443c27.717-2.169,53.76-15.814,81.476-17.773
		c28.627-2.029,57.571,1.504,85.918,5.913c13.438,2.064,26.213,7.627,38.531,13.33c1.365,0.63-1.015,3.359,0.001,4.443
		c6.229,6.648,25.162,2.449,33.911,0c31.985-8.992,34.576,25.75,44.619,44.433c14.523,27.01,0.735,61.577,5.915,91.841
		c1.399,8.082,11.898,12.63,13.333,20.712c6.124,34.637,2.345,70.604,8.889,105.17c2.03,10.637,11.934,18.229,16.309,28.13
		c4.584,10.461,3.254,23.651,10.358,32.607c20.192,25.4,45.529,46.357,69.642,68.119c1.854,1.68,5.879-0.274,7.384,1.72
		C1052.021,912.506,1125.792,966.423,1106.334,980L1106.334,980z"/>
	<path fill-rule="evenodd" clip-rule="evenodd" fill="#93CCDC" d="M852.966,490h-33.91c3.464,99.975,8.049,247.741,11.408,312.013
		C835.573,899.73,845.372,587.506,852.966,490L852.966,490z M825.319,819.261c0.665,0,1.225,1.714,1.225,3.849
		c0,2.099-0.56,3.813-1.225,3.813c-0.7,0-1.26-1.715-1.26-3.813C824.06,820.975,824.619,819.261,825.319,819.261L825.319,819.261z
		 M845.057,874.47c0.315,0,0.561,0.77,0.561,1.715c0,0.944-0.245,1.679-0.561,1.679c-0.279,0-0.524-0.734-0.524-1.679
		C844.532,875.239,844.777,874.47,845.057,874.47L845.057,874.47z M833.474,838.328c0.28,0,0.56,0.771,0.56,1.715
		s-0.279,1.68-0.56,1.68c-0.315,0-0.56-0.735-0.56-1.68S833.158,838.328,833.474,838.328L833.474,838.328z M829.344,848.545
		c0.315,0,0.561,0.77,0.561,1.714c0,0.91-0.245,1.68-0.561,1.68c-0.314,0-0.56-0.77-0.56-1.68
		C828.784,849.314,829.029,848.545,829.344,848.545L829.344,848.545z M844.322,865.583c0.07,0,0.14,1.609,0.14,3.568
		c0,1.995-0.069,3.604-0.14,3.604c-0.105,0-0.175-1.609-0.175-3.604C844.147,867.192,844.217,865.583,844.322,865.583
		L844.322,865.583z M825.39,762.127c0.104,0,0.175,1.609,0.175,3.568c0,1.995-0.07,3.604-0.175,3.604c-0.07,0-0.14-1.609-0.14-3.604
		C825.25,763.736,825.319,762.127,825.39,762.127L825.39,762.127z M838.093,858.516c0.105,0,0.175,1.609,0.175,3.604
		s-0.069,3.604-0.175,3.604c-0.104,0-0.175-1.609-0.175-3.604S837.988,858.516,838.093,858.516L838.093,858.516z M823.255,879.753
		c0.07,0,0.14,1.609,0.14,3.568c0,1.994-0.069,3.604-0.14,3.604c-0.105,0-0.175-1.609-0.175-3.604
		C823.08,881.362,823.149,879.753,823.255,879.753L823.255,879.753z M828.049,868.242c0.105,0,0.176,1.609,0.176,3.604
		c0,1.959-0.07,3.568-0.176,3.568c-0.069,0-0.14-1.609-0.14-3.568C827.909,869.852,827.979,868.242,828.049,868.242L828.049,868.242
		z M830.919,819.33c0.175,0,0.35,3.569,0.35,7.978s-0.175,8.012-0.35,8.012c-0.21,0-0.385-3.604-0.385-8.012
		S830.709,819.33,830.919,819.33L830.919,819.33z M824.76,796.939c0.21,0,0.35,3.568,0.35,7.977s-0.14,7.977-0.35,7.977
		s-0.351-3.568-0.351-7.977S824.55,796.939,824.76,796.939L824.76,796.939z M832.424,852.604c0.314,0,0.56,5.282,0.56,11.825
		c0,6.542-0.245,11.825-0.56,11.825c-0.28,0-0.525-5.283-0.525-11.825C831.898,857.886,832.144,852.604,832.424,852.604
		L832.424,852.604z M842.888,728.995c0.489,0,0.909,9.201,0.909,20.571c0,11.336-0.42,20.538-0.909,20.538
		c-0.525,0-0.945-9.202-0.945-20.538C841.942,738.196,842.362,728.995,842.888,728.995L842.888,728.995z M840.577,805.931
		c0.525,0,0.945,9.201,0.945,20.572c0,11.336-0.42,20.537-0.945,20.537c-0.524,0-0.944-9.201-0.944-20.537
		C839.633,815.132,840.053,805.931,840.577,805.931L840.577,805.931z"/>
</g>
</svg>
