<?xml version="1.0" encoding="utf-8"?>
<!-- Generator: Adobe Illustrator 16.0.0, SVG Export Plug-In . SVG Version: 6.00 Build 0)  -->
<!DOCTYPE svg PUBLIC "-//W3C//DTD SVG 1.1//EN" "http://www.w3.org/Graphics/SVG/1.1/DTD/svg11.dtd">
<svg version="1.1" id="Calque_1" xmlns="http://www.w3.org/2000/svg" xmlns:xlink="http://www.w3.org/1999/xlink" x="0px" y="0px"
	 width="100%" height="100%" viewBox="0 0 1400 980" enable-background="new 0 0 1400 980" xml:space="preserve">
<g>
	<path fill-rule="evenodd" clip-rule="evenodd" fill="#20513A" d="M0,414.682c44.444,37.331,30.507,102.371,30.507,163.843
		c0,36.106-19.777,261.281,35.411,262.121c9.204,0.141,38.738-193.127,61.73-115.316c1.819,6.192-1.366,235.461,55.187,170.491
		c6.054-6.963,21.591-78.756,57.252-3.849c8.399,17.633,31.776,15.079,44.829-1.365c25.932-32.607,81.19-257.888,83.359-257.957
		c33.736-1.015,17.218,149.464,30.341,193.057c6.964,23.127-8.784,45.273,48.154,28.515c12.039-3.533,13.019,20.887,37.55,36.526
		c8.679,5.493,98.023-11.248,145.652,46.025c0.315,0.351,48.714,26.228,77.34,43.228H0V414.682z M930.866,980
		c6.824-11,16.657-28.883,46.019-29.897c37.061-1.259,72.302-41.083,96.554-40.034c5.179,0.21,14.278-31.317-13.438-42.793
		c-9.239-3.849-50.148-35.427-1.225-41.584c29.886-3.779,67.961-41.487,18.407-72.695c-0.63-0.42-88.714-85.084-59.037-84.314
		c64.847,1.68,118.6-12.979,184.321-4.302c65.267,8.643,66.344-17.072,126.746-21.235c12.913-0.91,43.627-13.329,70.787-19.417V980
		H930.866z"/>
</g>
<g>
	<path fill-rule="evenodd" clip-rule="evenodd" fill="#93CCDC" d="M1292.96,0h-15.083C1283.686,834,1277.352,1005,1292.96,0
		L1292.96,0z M1274.167,903.701c0.525,0,0.91,1.505,0.91,3.359c0,1.889-0.385,3.394-0.91,3.394c-0.49,0-0.875-1.505-0.875-3.394
		C1273.292,905.206,1273.677,903.701,1274.167,903.701L1274.167,903.701z M1281.971,843.034c0.49,0,0.875,4.759,0.875,10.637
		c0,5.912-0.385,10.671-0.875,10.671c-0.489,0-0.909-4.759-0.909-10.671C1281.062,847.793,1281.481,843.034,1281.971,843.034
		L1281.971,843.034z M1279.592,716.592c1.225,0,2.239,11.966,2.239,26.66c0,14.729-1.015,26.66-2.239,26.66
		c-1.226,0-2.205-11.931-2.205-26.66C1277.387,728.558,1278.366,716.592,1279.592,716.592L1279.592,716.592z"/>
</g>
<g>
	<path fill-rule="evenodd" clip-rule="evenodd" fill="#20513A" d="M0,296.198c44.444,26.975,81.231-160.624,121.687-161.674
		c44.584-1.155,15.996,242.424,41.543,244.383c21.907,1.645,23.956-210.656,45.934-208.836
		c18.127,1.47,12.293,122.244,20.762,122.909c19.073,1.54-6.049-117.695,35.561-145.125c32.441-21.412,60.439,10.181,86.651,38.87
		c15.048,16.479,10.71,79.175,22.958,81.1c18.373,2.869,21.348-177.698,33.351-131.096c15.713,61.227,14.279,244.068,30.377,248.091
		c16.063,3.989,19.772-182.141,41.47-231.053c32.931-74.242,172.108-74.802,241.47-32.573c21.697,13.19,22.643,153.452,40,152.542
		c14.908-0.77,20.053-254.669,37.796-254.389c9.623,0.175,10.988,96.424,22.222,98.488c6.055,1.119,15.293-100.412,25.547-100.342
		c15.888,0.105,36.535,205.687,59.633,204.218C922.603,220.732,950.284,83,956.339,0H0V296.198z M1066.854,0
		c5.984,23,4.165,52.62,8.994,52.69c4.97,0.105,4.305-27.69,9.483-52.69H1066.854z M1118.508,0
		c14.979,96,14.629,274.787,24.008,274.856c8.363,0.07-0.141-180.856,27.751-274.856H1118.508z M1223.985,0
		c17.218,49,11.793,135.574,17.777,135.644c5.074,0.07,12.913-97.644,19.913-135.644H1223.985z M1270.074,0
		c9.729,67,18.758,254.389,25.407,253.759C1300.94,253.234,1302.83,91,1324.248,0H1270.074z M1365.263,0
		c11.339,109,6.404,329.191,17.253,328.351c5.949-0.455,5.705-193.774,9.869-190.975c2.555,1.714,5.615,3.866,6.615,6.14V0H1365.263
		z"/>
</g>
</svg>
